<svg width="14" height="13" viewBox="0 0 14 13" fill="none" xmlns="http://www.w3.org/2000/svg">
<path fill-rule="evenodd" clip-rule="evenodd" d="M7.14109 3.58676V4.99725C7.43647 4.54732 7.84361 4.18179 8.32266 3.93644C8.80171 3.69109 9.33625 3.57432 9.87397 3.59757C12.7457 3.59757 13.3665 5.39289 13.3665 7.72848V12.4836H10.7068V8.2679C10.7068 7.26219 10.504 5.96889 8.93808 5.96889C7.41953 5.96889 7.16021 7.06354 7.16021 8.1931V12.4836H4.50878V3.58676H7.14109ZM2.72759 1.35092C2.72726 1.6144 2.64916 1.87192 2.50307 2.0912C2.35698 2.31048 2.14942 2.48175 1.90639 2.58354C1.66346 2.68451 1.39599 2.71092 1.138 2.65942C0.88002 2.60791 0.643193 2.48081 0.457664 2.29429C0.271786 2.10766 0.14524 1.87024 0.0939381 1.61188C0.0426364 1.35352 0.0688703 1.08575 0.16934 0.842264C0.26981 0.598773 0.440031 0.390424 0.658596 0.243417C0.877162 0.09641 1.13431 0.0173086 1.39772 0.0160599C1.57278 0.0160586 1.74612 0.0506212 1.90779 0.117765C2.06946 0.184909 2.21629 0.283313 2.33984 0.407331C2.4634 0.53135 2.56125 0.678543 2.62779 0.840466C2.69433 1.00239 2.72824 1.17586 2.72759 1.35092Z" fill="#111D15"/>
<path d="M2.7281 3.5977H0.0683594V12.4837H2.7281V3.5977Z" fill="#111D15"/>
</svg>
