<svg width="120" height="30" viewBox="0 0 120 30" fill="none" xmlns="http://www.w3.org/2000/svg">
<path d="M12.9815 19.1667C12.9749 18.323 12.7632 17.4953 12.367 16.7642C11.9708 16.033 11.4035 15.4231 10.7202 14.9937L17.6819 2.16675L16.0546 1.16675L8.92735 14.2927C8.05265 14.085 7.14291 14.1137 6.28135 14.3763C5.41979 14.6389 4.6339 15.1269 3.99557 15.7957C0.473812 19.4067 0.746598 27.8487 0.759767 28.2067C0.769491 28.465 0.87287 28.7092 1.04823 28.8881C1.22359 29.0671 1.45732 29.167 1.70041 29.1667H15.8016C15.999 29.1667 16.1914 29.1007 16.3516 28.978C16.5117 28.8553 16.6315 28.6821 16.6939 28.483C16.7564 28.2839 16.7583 28.0689 16.6994 27.8686C16.6406 27.6682 16.5239 27.4927 16.3659 27.3667C13.0361 24.7107 12.9815 19.2207 12.9815 19.1667ZM8.20965 16.1637C8.96251 16.1725 9.6832 16.4896 10.2218 17.0489C10.7603 17.6082 11.0753 18.3668 11.1012 19.1667C11.1012 19.2047 11.1031 19.3747 11.1172 19.6357L5.56738 17.0117C5.93295 16.6913 6.35481 16.4513 6.80842 16.3057C7.26203 16.1601 7.73834 16.1119 8.20965 16.1637ZM11.5207 27.1667C10.7688 26.3529 10.2896 25.2987 10.1568 24.1667H8.27549C8.34286 25.231 8.65557 26.2613 9.18603 27.1667H7.09499C6.70815 25.869 6.47279 24.5256 6.39421 23.1667H4.51293C4.57359 24.5215 4.78353 25.864 5.13845 27.1667H2.63164C2.6608 25.3307 2.90443 21.2747 4.32762 18.6137L11.4135 21.9637C11.7539 23.8431 12.4797 25.6195 13.5393 27.1667H11.5207Z" fill="#36B864"/>
<path d="M23.7627 14V3.20833H28.4148C29.3189 3.20833 30.0724 3.38333 30.6752 3.73333C31.278 4.08333 31.7252 4.53542 32.0168 5.08958C32.3182 5.64375 32.4689 6.22222 32.4689 6.825C32.4689 7.4375 32.3182 8.02083 32.0168 8.575C31.7252 9.12917 31.278 9.58611 30.6752 9.94583C30.0724 10.2958 29.3189 10.4708 28.4148 10.4708H26.2856V14H23.7627ZM28.4002 5.41042H26.2856V8.28333H28.4002C28.9155 8.28333 29.2995 8.13264 29.5523 7.83125C29.805 7.52986 29.9314 7.1993 29.9314 6.83958C29.9314 6.47986 29.805 6.15417 29.5523 5.8625C29.2995 5.56111 28.9155 5.41042 28.4002 5.41042ZM33.6856 14V6.27083H36.1502V7.4375H36.2377C36.3155 7.23333 36.4273 7.03403 36.5731 6.83958C36.7287 6.63542 36.9426 6.46528 37.2148 6.32917C37.487 6.19305 37.8467 6.125 38.2939 6.125C38.5078 6.125 38.678 6.13958 38.8044 6.16875C38.9308 6.19792 38.9939 6.2125 38.9939 6.2125V8.67708C38.9939 8.67708 38.9259 8.6625 38.7898 8.63333C38.6537 8.60417 38.4641 8.58958 38.221 8.58958C37.5308 8.58958 37.0155 8.77431 36.6752 9.14375C36.3446 9.51319 36.1794 10.116 36.1794 10.9521V14H33.6856ZM43.9345 14.1458C43.0595 14.1458 42.3158 13.9611 41.7033 13.5917C41.0908 13.2222 40.6192 12.7312 40.2887 12.1187C39.9678 11.5062 39.8074 10.8451 39.8074 10.1354C39.8074 9.42569 39.9678 8.76458 40.2887 8.15208C40.6192 7.53958 41.0908 7.04861 41.7033 6.67917C42.3158 6.30972 43.0595 6.125 43.9345 6.125C44.8192 6.125 45.5678 6.30972 46.1803 6.67917C46.7928 7.04861 47.2595 7.53958 47.5803 8.15208C47.9109 8.76458 48.0762 9.42569 48.0762 10.1354C48.0762 10.8451 47.9109 11.5062 47.5803 12.1187C47.2595 12.7312 46.7928 13.2222 46.1803 13.5917C45.5678 13.9611 44.8192 14.1458 43.9345 14.1458ZM43.9345 12.1333C44.4498 12.1333 44.8484 11.9389 45.1303 11.55C45.422 11.1514 45.5678 10.6799 45.5678 10.1354C45.5678 9.59097 45.422 9.12431 45.1303 8.73542C44.8484 8.33681 44.4498 8.1375 43.9345 8.1375C43.429 8.1375 43.0303 8.33681 42.7387 8.73542C42.447 9.12431 42.3012 9.59097 42.3012 10.1354C42.3012 10.6799 42.447 11.1514 42.7387 11.55C43.0303 11.9389 43.429 12.1333 43.9345 12.1333Z" fill="#36B864"/>
<path d="M54.6559 14.1458C53.7614 14.1458 52.9739 13.9903 52.2934 13.6792C51.6128 13.3583 51.0441 12.9354 50.5871 12.4104C50.1399 11.8757 49.7996 11.2778 49.5663 10.6167C49.3427 9.95556 49.2309 9.27986 49.2309 8.58958C49.2309 7.90903 49.3427 7.23819 49.5663 6.57708C49.7996 5.91597 50.1399 5.32292 50.5871 4.79792C51.0441 4.27292 51.6128 3.85486 52.2934 3.54375C52.9739 3.22292 53.7614 3.0625 54.6559 3.0625C55.4239 3.0625 56.0753 3.15972 56.61 3.35417C57.1545 3.53889 57.6066 3.7868 57.9663 4.09792C58.3357 4.39931 58.6274 4.72014 58.8413 5.06042C59.0649 5.39097 59.2302 5.70694 59.3371 6.00833C59.4441 6.30972 59.5121 6.55764 59.5413 6.75208C59.5802 6.94653 59.5996 7.04375 59.5996 7.04375H57.1059C57.1059 7.04375 57.0767 6.95625 57.0184 6.78125C56.9698 6.60625 56.8628 6.40694 56.6975 6.18333C56.542 5.95 56.3038 5.74583 55.983 5.57083C55.6621 5.39583 55.2295 5.30833 54.685 5.30833C54.0531 5.30833 53.5232 5.46875 53.0955 5.78958C52.6774 6.11042 52.3614 6.52361 52.1475 7.02917C51.9434 7.525 51.8413 8.04514 51.8413 8.58958C51.8413 9.13403 51.9434 9.65903 52.1475 10.1646C52.3614 10.6701 52.6774 11.0833 53.0955 11.4042C53.5232 11.725 54.0531 11.8854 54.685 11.8854C55.2295 11.8854 55.6621 11.7979 55.983 11.6229C56.3038 11.4479 56.542 11.2486 56.6975 11.025C56.8628 10.8014 56.9698 10.6021 57.0184 10.4271C57.0767 10.2521 57.1059 10.1646 57.1059 10.1646H59.5996C59.5996 10.1646 59.5802 10.2618 59.5413 10.4562C59.5121 10.641 59.4441 10.8889 59.3371 11.2C59.2302 11.5014 59.0649 11.8222 58.8413 12.1625C58.6274 12.4931 58.3357 12.8139 57.9663 13.125C57.6066 13.4264 57.1545 13.6743 56.61 13.8687C56.0753 14.0535 55.4239 14.1458 54.6559 14.1458ZM61.047 14V2.91667H63.5408V14H61.047ZM69.0972 14.1458C68.407 14.1458 67.8091 14.034 67.3035 13.8104C66.7979 13.5771 66.375 13.2708 66.0347 12.8917C65.7042 12.5028 65.4563 12.0701 65.291 11.5937C65.1354 11.1174 65.0577 10.6264 65.0577 10.1208C65.0577 9.63472 65.1354 9.15347 65.291 8.67708C65.4466 8.20069 65.6847 7.77292 66.0056 7.39375C66.3264 7.00486 66.7347 6.69861 67.2306 6.475C67.7361 6.24167 68.3341 6.125 69.0243 6.125C69.7632 6.125 70.4097 6.28542 70.9639 6.60625C71.5278 6.91736 71.9653 7.37917 72.2764 7.99167C72.5973 8.59444 72.7577 9.32847 72.7577 10.1937V10.7771H67.566C67.5952 11.1757 67.7361 11.5257 67.9889 11.8271C68.2514 12.1187 68.6209 12.2646 69.0972 12.2646C69.457 12.2646 69.7292 12.2014 69.9139 12.075C70.1084 11.9389 70.2396 11.8028 70.3077 11.6667C70.3757 11.5306 70.4097 11.4625 70.4097 11.4625H72.6993C72.6993 11.4625 72.675 11.5549 72.6264 11.7396C72.5778 11.9146 72.4854 12.1382 72.3493 12.4104C72.2132 12.6729 72.0139 12.9403 71.7514 13.2125C71.4889 13.475 71.1389 13.6986 70.7014 13.8833C70.2736 14.0583 69.7389 14.1458 69.0972 14.1458ZM67.5514 9.33333H70.366C70.3466 8.87639 70.2056 8.53125 69.9431 8.29792C69.6903 8.06458 69.3695 7.94792 68.9806 7.94792C68.6014 7.94792 68.2757 8.06458 68.0035 8.29792C67.741 8.53125 67.5903 8.87639 67.5514 9.33333ZM77.441 6.125C77.9465 6.125 78.3549 6.20764 78.666 6.37292C78.9868 6.53819 79.225 6.70833 79.3806 6.88333C79.5458 7.04861 79.6382 7.15069 79.6576 7.18958H79.7743V6.27083H82.2681V14H79.7743V13.0812H79.6576C79.6382 13.1201 79.5458 13.2271 79.3806 13.4021C79.225 13.5771 78.9868 13.7472 78.666 13.9125C78.3549 14.0681 77.9465 14.1458 77.441 14.1458C76.8771 14.1458 76.3861 14.034 75.9681 13.8104C75.55 13.5771 75.2 13.2708 74.9181 12.8917C74.6361 12.5028 74.4271 12.0701 74.291 11.5937C74.1549 11.1174 74.0868 10.6312 74.0868 10.1354C74.0868 9.63958 74.1549 9.15347 74.291 8.67708C74.4271 8.20069 74.6361 7.77292 74.9181 7.39375C75.2 7.00486 75.55 6.69861 75.9681 6.475C76.3861 6.24167 76.8771 6.125 77.441 6.125ZM78.2285 8.12292C77.8687 8.12292 77.5674 8.225 77.3243 8.42917C77.0812 8.62361 76.9014 8.87639 76.7847 9.1875C76.6681 9.48889 76.6097 9.80486 76.6097 10.1354C76.6097 10.466 76.6681 10.7868 76.7847 11.0979C76.9014 11.3993 77.0812 11.6521 77.3243 11.8562C77.5674 12.0507 77.8687 12.1479 78.2285 12.1479C78.5882 12.1479 78.8847 12.0507 79.1181 11.8562C79.3611 11.6521 79.541 11.3993 79.6576 11.0979C79.784 10.7868 79.8472 10.466 79.8472 10.1354C79.8472 9.80486 79.784 9.48889 79.6576 9.1875C79.541 8.87639 79.3611 8.62361 79.1181 8.42917C78.8847 8.225 78.5882 8.12292 78.2285 8.12292ZM83.9013 14V6.27083H86.395V7.36458H86.4679C86.5652 7.20903 86.6964 7.03403 86.8617 6.83958C87.0367 6.64514 87.2652 6.47986 87.5471 6.34375C87.8388 6.19792 88.1985 6.125 88.6263 6.125C89.2485 6.125 89.7443 6.26597 90.1138 6.54792C90.4929 6.82986 90.7652 7.18958 90.9304 7.62708C91.0957 8.05486 91.1784 8.49722 91.1784 8.95417V14H88.6846V9.42083C88.6846 9.09028 88.5971 8.79861 88.4221 8.54583C88.2471 8.28333 87.9603 8.15208 87.5617 8.15208C87.1242 8.15208 86.8179 8.29792 86.6429 8.58958C86.4777 8.87153 86.395 9.18264 86.395 9.52292V14H83.9013ZM94.2033 5.35208C93.7852 5.35208 93.4401 5.21597 93.1678 4.94375C92.8956 4.67153 92.7595 4.35069 92.7595 3.98125C92.7595 3.59236 92.8956 3.2618 93.1678 2.98958C93.4401 2.71736 93.7852 2.58125 94.2033 2.58125C94.6213 2.58125 94.9665 2.71736 95.2387 2.98958C95.5109 3.2618 95.647 3.59236 95.647 3.98125C95.647 4.35069 95.5109 4.67153 95.2387 4.94375C94.9665 5.21597 94.6213 5.35208 94.2033 5.35208ZM92.9491 14V6.27083H95.4428V14H92.9491ZM97.2171 14V6.27083H99.7109V7.36458H99.7838C99.881 7.20903 100.012 7.03403 100.178 6.83958C100.353 6.64514 100.581 6.47986 100.863 6.34375C101.155 6.19792 101.514 6.125 101.942 6.125C102.564 6.125 103.06 6.26597 103.43 6.54792C103.809 6.82986 104.081 7.18958 104.246 7.62708C104.412 8.05486 104.494 8.49722 104.494 8.95417V14H102V9.42083C102 9.09028 101.913 8.79861 101.738 8.54583C101.563 8.28333 101.276 8.15208 100.878 8.15208C100.44 8.15208 100.134 8.29792 99.9588 8.58958C99.7935 8.87153 99.7109 9.18264 99.7109 9.52292V14H97.2171ZM110.001 17.1063C109.272 17.1063 108.669 17.0139 108.193 16.8292C107.716 16.6542 107.337 16.4306 107.055 16.1583C106.783 15.8958 106.584 15.6285 106.457 15.3563C106.331 15.0938 106.248 14.8701 106.209 14.6854C106.18 14.5104 106.166 14.4229 106.166 14.4229H108.572C108.572 14.4229 108.601 14.4861 108.659 14.6125C108.727 14.7389 108.859 14.8653 109.053 14.9917C109.257 15.1278 109.563 15.1958 109.972 15.1958C110.497 15.1958 110.895 15.0451 111.168 14.7438C111.45 14.4424 111.591 14.0243 111.591 13.4896V12.6875H111.474C111.377 12.8431 111.231 13.0083 111.036 13.1833C110.852 13.3583 110.613 13.509 110.322 13.6354C110.03 13.7521 109.68 13.8104 109.272 13.8104C108.708 13.8104 108.212 13.7035 107.784 13.4896C107.366 13.2757 107.011 12.984 106.72 12.6146C106.438 12.2451 106.224 11.8319 106.078 11.375C105.942 10.9181 105.874 10.4514 105.874 9.975C105.874 9.48889 105.942 9.01736 106.078 8.56042C106.224 8.10347 106.438 7.69514 106.72 7.33542C107.011 6.96597 107.366 6.6743 107.784 6.46042C108.212 6.2368 108.708 6.125 109.272 6.125C109.68 6.125 110.03 6.18819 110.322 6.31458C110.613 6.43125 110.857 6.57708 111.051 6.75208C111.245 6.92708 111.386 7.09236 111.474 7.24792H111.591V6.27083H114.084V13.4896C114.084 14.1118 113.938 14.6951 113.647 15.2396C113.365 15.7938 112.923 16.241 112.32 16.5813C111.727 16.9313 110.954 17.1063 110.001 17.1063ZM110.016 11.8708C110.385 11.8708 110.691 11.7785 110.934 11.5937C111.177 11.409 111.357 11.1708 111.474 10.8792C111.6 10.5875 111.663 10.2861 111.663 9.975C111.663 9.64444 111.6 9.33819 111.474 9.05625C111.357 8.76458 111.177 8.52639 110.934 8.34167C110.691 8.15694 110.385 8.06458 110.016 8.06458C109.656 8.06458 109.354 8.15694 109.111 8.34167C108.868 8.52639 108.684 8.76458 108.557 9.05625C108.431 9.33819 108.368 9.64444 108.368 9.975C108.368 10.2861 108.431 10.5875 108.557 10.8792C108.684 11.1708 108.868 11.409 109.111 11.5937C109.354 11.7785 109.656 11.8708 110.016 11.8708Z" fill="#111D15"/>
<path d="M25.6643 27.7721C25.2583 27.7721 24.9013 27.6975 24.5933 27.5481C24.2853 27.3941 24.0287 27.1911 23.8233 26.9391C23.6227 26.6825 23.471 26.3978 23.3683 26.0851C23.2657 25.7678 23.2143 25.4435 23.2143 25.1121C23.2143 24.7808 23.2657 24.4565 23.3683 24.1391C23.471 23.8218 23.6227 23.5371 23.8233 23.2851C24.0287 23.0285 24.2853 22.8255 24.5933 22.6761C24.9013 22.5268 25.2583 22.4521 25.6643 22.4521C26.0003 22.4521 26.2873 22.4965 26.5253 22.5851C26.768 22.6691 26.9687 22.7788 27.1273 22.9141C27.2907 23.0495 27.4213 23.1941 27.5193 23.3481C27.622 23.5021 27.6967 23.6468 27.7433 23.7821C27.7947 23.9175 27.8273 24.0295 27.8413 24.1181C27.86 24.2021 27.8693 24.2441 27.8693 24.2441H27.1833C27.1833 24.2441 27.174 24.2068 27.1553 24.1321C27.1367 24.0528 27.0993 23.9571 27.0433 23.8451C26.9873 23.7285 26.9033 23.6118 26.7913 23.4951C26.6793 23.3785 26.5323 23.2828 26.3503 23.2081C26.1683 23.1288 25.942 23.0891 25.6713 23.0891C25.3773 23.0891 25.1207 23.1475 24.9013 23.2641C24.682 23.3761 24.4977 23.5301 24.3483 23.7261C24.2037 23.9175 24.094 24.1345 24.0193 24.3771C23.9493 24.6151 23.9143 24.8601 23.9143 25.1121C23.9143 25.3641 23.9493 25.6115 24.0193 25.8541C24.094 26.0921 24.2037 26.3091 24.3483 26.5051C24.4977 26.6965 24.682 26.8505 24.9013 26.9671C25.1207 27.0791 25.3773 27.1351 25.6713 27.1351C25.942 27.1351 26.1683 27.0955 26.3503 27.0161C26.5323 26.9368 26.6793 26.8411 26.7913 26.7291C26.9033 26.6125 26.9873 26.4981 27.0433 26.3861C27.0993 26.2695 27.1367 26.1715 27.1553 26.0921C27.174 26.0128 27.1833 25.9731 27.1833 25.9731H27.8693C27.8693 25.9731 27.86 26.0175 27.8413 26.1061C27.8273 26.1901 27.7947 26.3021 27.7433 26.4421C27.6967 26.5775 27.622 26.7221 27.5193 26.8761C27.4213 27.0255 27.2907 27.1701 27.1273 27.3101C26.9687 27.4455 26.768 27.5575 26.5253 27.6461C26.2873 27.7301 26.0003 27.7721 25.6643 27.7721ZM28.8171 27.7021L28.8241 22.3821H29.4821V27.7021H28.8171ZM32.2183 27.7721C31.9149 27.7721 31.6513 27.7185 31.4273 27.6111C31.2079 27.4991 31.0259 27.3498 30.8813 27.1631C30.7413 26.9765 30.6363 26.7711 30.5663 26.5471C30.4963 26.3185 30.4613 26.0851 30.4613 25.8471C30.4613 25.6138 30.4939 25.3828 30.5593 25.1541C30.6293 24.9255 30.7343 24.7178 30.8743 24.5311C31.0189 24.3445 31.1986 24.1975 31.4133 24.0901C31.6326 23.9781 31.8916 23.9221 32.1903 23.9221C32.5076 23.9221 32.7876 23.9945 33.0303 24.1391C33.2729 24.2838 33.4643 24.4985 33.6043 24.7831C33.7443 25.0678 33.8143 25.4248 33.8143 25.8541V26.0501H31.1333C31.1473 26.2601 31.1963 26.4538 31.2803 26.6311C31.3689 26.8038 31.4926 26.9438 31.6513 27.0511C31.8099 27.1538 31.9989 27.2051 32.2183 27.2051C32.4096 27.2051 32.5636 27.1748 32.6803 27.1141C32.8016 27.0488 32.8973 26.9741 32.9673 26.8901C33.0373 26.8061 33.0839 26.7338 33.1073 26.6731C33.1353 26.6078 33.1493 26.5751 33.1493 26.5751H33.7723C33.7723 26.5751 33.7606 26.6171 33.7373 26.7011C33.7139 26.7805 33.6719 26.8785 33.6113 26.9951C33.5506 27.1118 33.4619 27.2308 33.3453 27.3521C33.2286 27.4688 33.0793 27.5691 32.8973 27.6531C32.7153 27.7325 32.4889 27.7721 32.2183 27.7721ZM31.1403 25.5321H33.1633C33.1539 25.2895 33.1026 25.0935 33.0093 24.9441C32.9159 24.7901 32.7969 24.6758 32.6523 24.6011C32.5076 24.5265 32.3536 24.4891 32.1903 24.4891C31.8963 24.4891 31.6559 24.5848 31.4693 24.7761C31.2826 24.9628 31.1729 25.2148 31.1403 25.5321ZM36.2975 23.9221C36.5308 23.9221 36.7268 23.9595 36.8855 24.0341C37.0442 24.1088 37.1725 24.1975 37.2705 24.3001C37.3685 24.3981 37.4432 24.4915 37.4945 24.5801H37.5365V23.9921H38.2015V27.7021H37.5365V27.1141H37.4945C37.4432 27.2028 37.3685 27.2985 37.2705 27.4011C37.1725 27.5038 37.0442 27.5925 36.8855 27.6671C36.7268 27.7371 36.5308 27.7721 36.2975 27.7721C36.0175 27.7721 35.7725 27.7185 35.5625 27.6111C35.3525 27.4991 35.1775 27.3521 35.0375 27.1701C34.8975 26.9835 34.7925 26.7758 34.7225 26.5471C34.6525 26.3185 34.6175 26.0851 34.6175 25.8471C34.6175 25.6091 34.6525 25.3758 34.7225 25.1471C34.7925 24.9185 34.8975 24.7131 35.0375 24.5311C35.1775 24.3445 35.3525 24.1975 35.5625 24.0901C35.7725 23.9781 36.0175 23.9221 36.2975 23.9221ZM36.4095 24.4891C36.1622 24.4891 35.9545 24.5568 35.7865 24.6921C35.6185 24.8228 35.4925 24.9908 35.4085 25.1961C35.3292 25.4015 35.2895 25.6185 35.2895 25.8471C35.2895 26.0711 35.3292 26.2881 35.4085 26.4981C35.4925 26.7035 35.6185 26.8738 35.7865 27.0091C35.9545 27.1398 36.1622 27.2051 36.4095 27.2051C36.6568 27.2051 36.8622 27.1398 37.0255 27.0091C37.1935 26.8738 37.3172 26.7035 37.3965 26.4981C37.4805 26.2881 37.5225 26.0711 37.5225 25.8471C37.5225 25.6185 37.4805 25.4015 37.3965 25.1961C37.3172 24.9908 37.1935 24.8228 37.0255 24.6921C36.8622 24.5568 36.6568 24.4891 36.4095 24.4891ZM39.1787 27.7021V23.9921H39.8437V24.5311H39.8857C39.9184 24.4751 39.9721 24.3981 40.0467 24.3001C40.1261 24.2021 40.2381 24.1158 40.3827 24.0411C40.5274 23.9618 40.7094 23.9221 40.9287 23.9221C41.1994 23.9221 41.4304 23.9851 41.6217 24.1111C41.8131 24.2325 41.9577 24.3981 42.0557 24.6081C42.1584 24.8181 42.2097 25.0538 42.2097 25.3151V27.7021H41.5447V25.3571C41.5447 25.1098 41.4747 24.9045 41.3347 24.7411C41.1994 24.5778 41.0011 24.4961 40.7397 24.4961C40.5297 24.4961 40.3594 24.5498 40.2287 24.6571C40.0981 24.7598 40.0001 24.8975 39.9347 25.0701C39.8741 25.2381 39.8437 25.4178 39.8437 25.6091V27.7021H39.1787ZM43.6254 23.2851C43.4994 23.2851 43.3944 23.2431 43.3104 23.1591C43.2311 23.0751 43.1914 22.9748 43.1914 22.8581C43.1914 22.7368 43.2311 22.6341 43.3104 22.5501C43.3944 22.4661 43.4994 22.4241 43.6254 22.4241C43.7468 22.4241 43.8494 22.4661 43.9334 22.5501C44.0174 22.6341 44.0594 22.7368 44.0594 22.8581C44.0594 22.9748 44.0174 23.0751 43.9334 23.1591C43.8494 23.2431 43.7468 23.2851 43.6254 23.2851ZM43.2964 27.7021V23.9921H43.9614V27.7021H43.2964ZM45.0371 27.7021V23.9921H45.7021V24.5311H45.7441C45.7768 24.4751 45.8305 24.3981 45.9051 24.3001C45.9845 24.2021 46.0965 24.1158 46.2411 24.0411C46.3858 23.9618 46.5678 23.9221 46.7871 23.9221C47.0578 23.9221 47.2888 23.9851 47.4801 24.1111C47.6715 24.2325 47.8161 24.3981 47.9141 24.6081C48.0168 24.8181 48.0681 25.0538 48.0681 25.3151V27.7021H47.4031V25.3571C47.4031 25.1098 47.3331 24.9045 47.1931 24.7411C47.0578 24.5778 46.8595 24.4961 46.5981 24.4961C46.3881 24.4961 46.2178 24.5498 46.0871 24.6571C45.9565 24.7598 45.8585 24.8975 45.7931 25.0701C45.7325 25.2381 45.7021 25.4178 45.7021 25.6091V27.7021H45.0371ZM50.8348 29.1721C50.5268 29.1721 50.2701 29.1301 50.0648 29.0461C49.8595 28.9668 49.6938 28.8641 49.5678 28.7381C49.4465 28.6168 49.3555 28.4955 49.2948 28.3741C49.2341 28.2528 49.1945 28.1501 49.1758 28.0661C49.1571 27.9868 49.1478 27.9471 49.1478 27.9471H49.8128C49.8128 27.9471 49.8245 27.9798 49.8478 28.0451C49.8711 28.1105 49.9155 28.1851 49.9808 28.2691C50.0508 28.3531 50.1535 28.4278 50.2888 28.4931C50.4241 28.5585 50.6061 28.5911 50.8348 28.5911C51.1055 28.5911 51.3178 28.5375 51.4718 28.4301C51.6258 28.3275 51.7355 28.1921 51.8008 28.0241C51.8708 27.8561 51.9058 27.6788 51.9058 27.4921V27.0651H51.8708C51.8242 27.1445 51.7495 27.2355 51.6468 27.3381C51.5488 27.4361 51.4182 27.5225 51.2548 27.5971C51.0915 27.6671 50.8908 27.7021 50.6528 27.7021C50.3728 27.7021 50.1278 27.6485 49.9178 27.5411C49.7078 27.4338 49.5328 27.2891 49.3928 27.1071C49.2575 26.9251 49.1548 26.7221 49.0848 26.4981C49.0148 26.2741 48.9798 26.0455 48.9798 25.8121C48.9798 25.5788 49.0148 25.3501 49.0848 25.1261C49.1548 24.9021 49.2575 24.6991 49.3928 24.5171C49.5328 24.3351 49.7078 24.1905 49.9178 24.0831C50.1278 23.9758 50.3728 23.9221 50.6528 23.9221C50.8908 23.9221 51.0915 23.9595 51.2548 24.0341C51.4182 24.1041 51.5488 24.1881 51.6468 24.2861C51.7495 24.3841 51.8242 24.4751 51.8708 24.5591H51.9058V23.9921H52.5708V27.4851C52.5708 28.0031 52.4192 28.4138 52.1158 28.7171C51.8172 29.0205 51.3902 29.1721 50.8348 29.1721ZM50.7788 27.1351C51.0261 27.1351 51.2315 27.0721 51.3948 26.9461C51.5628 26.8155 51.6865 26.6498 51.7658 26.4491C51.8498 26.2485 51.8918 26.0361 51.8918 25.8121C51.8918 25.5881 51.8498 25.3758 51.7658 25.1751C51.6865 24.9698 51.5628 24.8041 51.3948 24.6781C51.2315 24.5521 51.0261 24.4891 50.7788 24.4891C50.5315 24.4891 50.3238 24.5521 50.1558 24.6781C49.9878 24.8041 49.8618 24.9698 49.7778 25.1751C49.6985 25.3758 49.6588 25.5881 49.6588 25.8121C49.6588 26.0361 49.6985 26.2485 49.7778 26.4491C49.8618 26.6498 49.9878 26.8155 50.1558 26.9461C50.3238 27.0721 50.5315 27.1351 50.7788 27.1351ZM56.9671 27.7721C56.6685 27.7721 56.4118 27.7348 56.1971 27.6601C55.9871 27.5808 55.8121 27.4805 55.6721 27.3591C55.5321 27.2331 55.4201 27.1025 55.3361 26.9671C55.2521 26.8318 55.1891 26.7035 55.1471 26.5821C55.1051 26.4561 55.0771 26.3558 55.0631 26.2811C55.0538 26.2018 55.0491 26.1621 55.0491 26.1621H55.7491C55.7491 26.1621 55.7561 26.1948 55.7701 26.2601C55.7841 26.3255 55.8121 26.4071 55.8541 26.5051C55.9008 26.6031 55.9685 26.7035 56.0571 26.8061C56.1458 26.9041 56.2648 26.9858 56.4141 27.0511C56.5635 27.1165 56.7525 27.1491 56.9811 27.1491C57.3265 27.1491 57.5995 27.0675 57.8001 26.9041C58.0008 26.7361 58.1011 26.5191 58.1011 26.2531C58.1011 26.0245 58.0241 25.8471 57.8701 25.7211C57.7208 25.5951 57.5061 25.4971 57.2261 25.4271L56.5401 25.2591C56.2975 25.1985 56.0711 25.1145 55.8611 25.0071C55.6558 24.8951 55.4901 24.7505 55.3641 24.5731C55.2428 24.3911 55.1821 24.1648 55.1821 23.8941C55.1821 23.5908 55.2568 23.3318 55.4061 23.1171C55.5555 22.9025 55.7585 22.7391 56.0151 22.6271C56.2718 22.5105 56.5635 22.4521 56.8901 22.4521C57.2075 22.4521 57.4711 22.5011 57.6811 22.5991C57.8911 22.6971 58.0591 22.8185 58.1851 22.9631C58.3111 23.1031 58.4045 23.2455 58.4651 23.3901C58.5258 23.5301 58.5655 23.6491 58.5841 23.7471C58.6028 23.8451 58.6121 23.8941 58.6121 23.8941H57.9401C57.9401 23.8941 57.9308 23.8521 57.9121 23.7681C57.8935 23.6841 57.8491 23.5885 57.7791 23.4811C57.7091 23.3691 57.6018 23.2711 57.4571 23.1871C57.3125 23.1031 57.1165 23.0611 56.8691 23.0611C56.5331 23.0611 56.2788 23.1405 56.1061 23.2991C55.9381 23.4578 55.8541 23.6398 55.8541 23.8451C55.8541 24.0318 55.9218 24.1835 56.0571 24.3001C56.1925 24.4121 56.3791 24.4985 56.6171 24.5591L57.3591 24.7411C57.6251 24.8065 57.8655 24.9021 58.0801 25.0281C58.2948 25.1495 58.4651 25.3081 58.5911 25.5041C58.7171 25.6955 58.7801 25.9311 58.7801 26.2111C58.7801 26.4911 58.7101 26.7501 58.5701 26.9881C58.4348 27.2261 58.2318 27.4175 57.9611 27.5621C57.6951 27.7021 57.3638 27.7721 56.9671 27.7721ZM61.2915 27.7721C60.9882 27.7721 60.7245 27.7185 60.5005 27.6111C60.2812 27.4991 60.0992 27.3498 59.9545 27.1631C59.8145 26.9765 59.7095 26.7711 59.6395 26.5471C59.5695 26.3185 59.5345 26.0851 59.5345 25.8471C59.5345 25.6138 59.5672 25.3828 59.6325 25.1541C59.7025 24.9255 59.8075 24.7178 59.9475 24.5311C60.0922 24.3445 60.2718 24.1975 60.4865 24.0901C60.7058 23.9781 60.9648 23.9221 61.2635 23.9221C61.5808 23.9221 61.8608 23.9945 62.1035 24.1391C62.3462 24.2838 62.5375 24.4985 62.6775 24.7831C62.8175 25.0678 62.8875 25.4248 62.8875 25.8541V26.0501H60.2065C60.2205 26.2601 60.2695 26.4538 60.3535 26.6311C60.4422 26.8038 60.5658 26.9438 60.7245 27.0511C60.8832 27.1538 61.0722 27.2051 61.2915 27.2051C61.4828 27.2051 61.6368 27.1748 61.7535 27.1141C61.8748 27.0488 61.9705 26.9741 62.0405 26.8901C62.1105 26.8061 62.1572 26.7338 62.1805 26.6731C62.2085 26.6078 62.2225 26.5751 62.2225 26.5751H62.8455C62.8455 26.5751 62.8338 26.6171 62.8105 26.7011C62.7872 26.7805 62.7452 26.8785 62.6845 26.9951C62.6238 27.1118 62.5352 27.2308 62.4185 27.3521C62.3018 27.4688 62.1525 27.5691 61.9705 27.6531C61.7885 27.7325 61.5622 27.7721 61.2915 27.7721ZM60.2135 25.5321H62.2365C62.2272 25.2895 62.1758 25.0935 62.0825 24.9441C61.9892 24.7901 61.8702 24.6758 61.7255 24.6011C61.5808 24.5265 61.4268 24.4891 61.2635 24.4891C60.9695 24.4891 60.7292 24.5848 60.5425 24.7761C60.3558 24.9628 60.2462 25.2148 60.2135 25.5321ZM63.7949 27.7021V23.9921H64.4599V24.4541H64.4879C64.5673 24.3141 64.6839 24.1905 64.8379 24.0831C64.9919 23.9758 65.2089 23.9221 65.4889 23.9221C65.5683 23.9221 65.6406 23.9268 65.7059 23.9361C65.7713 23.9408 65.8039 23.9431 65.8039 23.9431V24.5801C65.8039 24.5801 65.7666 24.5778 65.6919 24.5731C65.6219 24.5638 65.5473 24.5591 65.4679 24.5591C65.1459 24.5591 64.8963 24.6525 64.7189 24.8391C64.5463 25.0211 64.4599 25.3198 64.4599 25.7351V27.7021H63.7949ZM67.7051 27.7021L66.2911 23.9921H66.9841L68.0691 26.8901L69.1331 23.9921H69.8331L68.4121 27.7021H67.7051ZM71.0033 23.2851C70.8773 23.2851 70.7723 23.2431 70.6883 23.1591C70.609 23.0751 70.5693 22.9748 70.5693 22.8581C70.5693 22.7368 70.609 22.6341 70.6883 22.5501C70.7723 22.4661 70.8773 22.4241 71.0033 22.4241C71.1247 22.4241 71.2273 22.4661 71.3113 22.5501C71.3953 22.6341 71.4373 22.7368 71.4373 22.8581C71.4373 22.9748 71.3953 23.0751 71.3113 23.1591C71.2273 23.2431 71.1247 23.2851 71.0033 23.2851ZM70.6743 27.7021V23.9921H71.3393V27.7021H70.6743ZM74.1721 27.7721C73.8687 27.7721 73.6027 27.7185 73.3741 27.6111C73.1454 27.4991 72.9541 27.3521 72.8001 27.1701C72.6507 26.9835 72.5364 26.7758 72.4571 26.5471C72.3824 26.3185 72.3451 26.0851 72.3451 25.8471C72.3451 25.6091 72.3824 25.3781 72.4571 25.1541C72.5317 24.9255 72.6437 24.7178 72.7931 24.5311C72.9471 24.3445 73.1384 24.1975 73.3671 24.0901C73.5957 23.9781 73.8641 23.9221 74.1721 23.9221C74.4707 23.9221 74.7181 23.9665 74.9141 24.0551C75.1101 24.1438 75.2664 24.2558 75.3831 24.3911C75.5044 24.5218 75.5931 24.6548 75.6491 24.7901C75.7097 24.9208 75.7494 25.0305 75.7681 25.1191C75.7867 25.2078 75.7961 25.2521 75.7961 25.2521H75.1521C75.1521 25.2521 75.1404 25.2148 75.1171 25.1401C75.0937 25.0608 75.0494 24.9721 74.9841 24.8741C74.9187 24.7761 74.8207 24.6898 74.6901 24.6151C74.5594 24.5358 74.3867 24.4961 74.1721 24.4961C73.9154 24.4961 73.6984 24.5615 73.5211 24.6921C73.3484 24.8181 73.2177 24.9838 73.1291 25.1891C73.0451 25.3945 73.0031 25.6138 73.0031 25.8471C73.0031 26.0805 73.0451 26.2998 73.1291 26.5051C73.2177 26.7105 73.3484 26.8785 73.5211 27.0091C73.6984 27.1351 73.9154 27.1981 74.1721 27.1981C74.3867 27.1981 74.5594 27.1608 74.6901 27.0861C74.8207 27.0068 74.9187 26.9181 74.9841 26.8201C75.0494 26.7221 75.0937 26.6358 75.1171 26.5611C75.1404 26.4818 75.1521 26.4421 75.1521 26.4421H75.7961C75.7961 26.4421 75.7867 26.4865 75.7681 26.5751C75.7494 26.6638 75.7097 26.7758 75.6491 26.9111C75.5931 27.0418 75.5044 27.1748 75.3831 27.3101C75.2664 27.4408 75.1101 27.5505 74.9141 27.6391C74.7181 27.7278 74.4707 27.7721 74.1721 27.7721ZM78.395 27.7721C78.0917 27.7721 77.828 27.7185 77.604 27.6111C77.3847 27.4991 77.2027 27.3498 77.058 27.1631C76.918 26.9765 76.813 26.7711 76.743 26.5471C76.673 26.3185 76.638 26.0851 76.638 25.8471C76.638 25.6138 76.6707 25.3828 76.736 25.1541C76.806 24.9255 76.911 24.7178 77.051 24.5311C77.1957 24.3445 77.3754 24.1975 77.59 24.0901C77.8094 23.9781 78.0684 23.9221 78.367 23.9221C78.6844 23.9221 78.9644 23.9945 79.207 24.1391C79.4497 24.2838 79.641 24.4985 79.781 24.7831C79.921 25.0678 79.991 25.4248 79.991 25.8541V26.0501H77.31C77.324 26.2601 77.373 26.4538 77.457 26.6311C77.5457 26.8038 77.6694 26.9438 77.828 27.0511C77.9867 27.1538 78.1757 27.2051 78.395 27.2051C78.5864 27.2051 78.7404 27.1748 78.857 27.1141C78.9784 27.0488 79.074 26.9741 79.144 26.8901C79.214 26.8061 79.2607 26.7338 79.284 26.6731C79.312 26.6078 79.326 26.5751 79.326 26.5751H79.949C79.949 26.5751 79.9374 26.6171 79.914 26.7011C79.8907 26.7805 79.8487 26.8785 79.788 26.9951C79.7274 27.1118 79.6387 27.2308 79.522 27.3521C79.4054 27.4688 79.256 27.5691 79.074 27.6531C78.892 27.7325 78.6657 27.7721 78.395 27.7721ZM77.317 25.5321H79.34C79.3307 25.2895 79.2794 25.0935 79.186 24.9441C79.0927 24.7901 78.9737 24.6758 78.829 24.6011C78.6844 24.5265 78.5304 24.4891 78.367 24.4891C78.073 24.4891 77.8327 24.5848 77.646 24.7761C77.4594 24.9628 77.3497 25.2148 77.317 25.5321ZM82.2565 27.7721C81.9718 27.7721 81.7361 27.7325 81.5495 27.6531C81.3675 27.5738 81.2228 27.4758 81.1155 27.3591C81.0081 27.2378 80.9288 27.1188 80.8775 27.0021C80.8261 26.8808 80.7935 26.7805 80.7795 26.7011C80.7655 26.6218 80.7585 26.5821 80.7585 26.5821H81.4305C81.4305 26.5821 81.4375 26.6148 81.4515 26.6801C81.4701 26.7408 81.5051 26.8131 81.5565 26.8971C81.6125 26.9765 81.6965 27.0488 81.8085 27.1141C81.9251 27.1748 82.0791 27.2051 82.2705 27.2051C82.4898 27.2051 82.6601 27.1538 82.7815 27.0511C82.9028 26.9438 82.9635 26.8131 82.9635 26.6591C82.9635 26.5238 82.9145 26.4165 82.8165 26.3371C82.7231 26.2578 82.5878 26.1971 82.4105 26.1551L81.9065 26.0361C81.7198 25.9895 81.5448 25.9265 81.3815 25.8471C81.2181 25.7678 81.0851 25.6605 80.9825 25.5251C80.8845 25.3851 80.8355 25.2125 80.8355 25.0071C80.8355 24.6898 80.9545 24.4308 81.1925 24.2301C81.4305 24.0248 81.7408 23.9221 82.1235 23.9221C82.3801 23.9221 82.5925 23.9595 82.7605 24.0341C82.9285 24.1041 83.0615 24.1928 83.1595 24.3001C83.2621 24.4075 83.3368 24.5148 83.3835 24.6221C83.4348 24.7295 83.4675 24.8205 83.4815 24.8951C83.4955 24.9651 83.5025 25.0001 83.5025 25.0001H82.8585C82.8585 25.0001 82.8515 24.9745 82.8375 24.9231C82.8235 24.8671 82.7908 24.8065 82.7395 24.7411C82.6928 24.6711 82.6205 24.6105 82.5225 24.5591C82.4245 24.5031 82.2938 24.4751 82.1305 24.4751C81.9065 24.4751 81.7431 24.5265 81.6405 24.6291C81.5378 24.7318 81.4865 24.8438 81.4865 24.9651C81.4865 25.0818 81.5331 25.1775 81.6265 25.2521C81.7245 25.3221 81.8505 25.3758 82.0045 25.4131L82.5155 25.5321C82.8328 25.6068 83.0941 25.7305 83.2995 25.9031C83.5095 26.0711 83.6145 26.3138 83.6145 26.6311C83.6145 26.8365 83.5608 27.0278 83.4535 27.2051C83.3461 27.3778 83.1921 27.5155 82.9915 27.6181C82.7908 27.7208 82.5458 27.7721 82.2565 27.7721ZM87.8234 27.7721C87.5201 27.7721 87.2541 27.7185 87.0254 27.6111C86.7968 27.4991 86.6054 27.3521 86.4514 27.1701C86.3021 26.9835 86.1878 26.7758 86.1084 26.5471C86.0338 26.3185 85.9964 26.0851 85.9964 25.8471C85.9964 25.6091 86.0338 25.3781 86.1084 25.1541C86.1831 24.9255 86.2951 24.7178 86.4444 24.5311C86.5984 24.3445 86.7898 24.1975 87.0184 24.0901C87.2471 23.9781 87.5154 23.9221 87.8234 23.9221C88.1221 23.9221 88.3694 23.9665 88.5654 24.0551C88.7614 24.1438 88.9178 24.2558 89.0344 24.3911C89.1558 24.5218 89.2444 24.6548 89.3004 24.7901C89.3611 24.9208 89.4008 25.0305 89.4194 25.1191C89.4381 25.2078 89.4474 25.2521 89.4474 25.2521H88.8034C88.8034 25.2521 88.7918 25.2148 88.7684 25.1401C88.7451 25.0608 88.7008 24.9721 88.6354 24.8741C88.5701 24.7761 88.4721 24.6898 88.3414 24.6151C88.2108 24.5358 88.0381 24.4961 87.8234 24.4961C87.5668 24.4961 87.3498 24.5615 87.1724 24.6921C86.9998 24.8181 86.8691 24.9838 86.7804 25.1891C86.6964 25.3945 86.6544 25.6138 86.6544 25.8471C86.6544 26.0805 86.6964 26.2998 86.7804 26.5051C86.8691 26.7105 86.9998 26.8785 87.1724 27.0091C87.3498 27.1351 87.5668 27.1981 87.8234 27.1981C88.0381 27.1981 88.2108 27.1608 88.3414 27.0861C88.4721 27.0068 88.5701 26.9181 88.6354 26.8201C88.7008 26.7221 88.7451 26.6358 88.7684 26.5611C88.7918 26.4818 88.8034 26.4421 88.8034 26.4421H89.4474C89.4474 26.4421 89.4381 26.4865 89.4194 26.5751C89.4008 26.6638 89.3611 26.7758 89.3004 26.9111C89.2444 27.0418 89.1558 27.1748 89.0344 27.3101C88.9178 27.4408 88.7614 27.5505 88.5654 27.6391C88.3694 27.7278 88.1221 27.7721 87.8234 27.7721ZM92.1164 27.7721C91.7197 27.7721 91.3861 27.6811 91.1154 27.4991C90.8447 27.3125 90.6394 27.0721 90.4994 26.7781C90.3594 26.4841 90.2894 26.1738 90.2894 25.8471C90.2894 25.5158 90.3594 25.2055 90.4994 24.9161C90.6394 24.6221 90.8447 24.3841 91.1154 24.2021C91.3861 24.0155 91.7197 23.9221 92.1164 23.9221C92.5131 23.9221 92.8467 24.0155 93.1174 24.2021C93.3881 24.3841 93.5934 24.6221 93.7334 24.9161C93.8734 25.2055 93.9434 25.5158 93.9434 25.8471C93.9434 26.1738 93.8734 26.4841 93.7334 26.7781C93.5934 27.0721 93.3881 27.3125 93.1174 27.4991C92.8467 27.6811 92.5131 27.7721 92.1164 27.7721ZM92.1164 27.1911C92.3684 27.1911 92.5784 27.1281 92.7464 27.0021C92.9191 26.8715 93.0474 26.7035 93.1314 26.4981C93.2201 26.2928 93.2644 26.0758 93.2644 25.8471C93.2644 25.6138 93.2201 25.3968 93.1314 25.1961C93.0474 24.9908 92.9191 24.8251 92.7464 24.6991C92.5784 24.5685 92.3684 24.5031 92.1164 24.5031C91.8691 24.5031 91.6591 24.5685 91.4864 24.6991C91.3137 24.8251 91.1831 24.9908 91.0944 25.1961C91.0104 25.3968 90.9684 25.6138 90.9684 25.8471C90.9684 26.0758 91.0104 26.2928 91.0944 26.4981C91.1831 26.7035 91.3137 26.8715 91.4864 27.0021C91.6591 27.1281 91.8691 27.1911 92.1164 27.1911ZM94.8506 27.7021V23.9921H95.5156V24.5311H95.5436C95.5809 24.4611 95.6393 24.3795 95.7186 24.2861C95.7979 24.1881 95.9053 24.1041 96.0406 24.0341C96.1806 23.9595 96.3556 23.9221 96.5656 23.9221C96.8409 23.9221 97.0719 23.9898 97.2586 24.1251C97.4499 24.2558 97.5923 24.4331 97.6856 24.6571H97.6926C97.7953 24.4518 97.9399 24.2791 98.1266 24.1391C98.3179 23.9945 98.5653 23.9221 98.8686 23.9221C99.2699 23.9221 99.5779 24.0598 99.7926 24.3351C100.012 24.6058 100.122 24.9558 100.122 25.3851V27.7021H99.4566V25.4201C99.4566 25.1448 99.3913 24.9231 99.2606 24.7551C99.1299 24.5825 98.9409 24.4961 98.6936 24.4961C98.4789 24.4961 98.3063 24.5545 98.1756 24.6711C98.0496 24.7878 97.9586 24.9325 97.9026 25.1051C97.8466 25.2778 97.8186 25.4505 97.8186 25.6231V27.7021H97.1536V25.4201C97.1536 25.1448 97.0883 24.9231 96.9576 24.7551C96.8316 24.5825 96.6426 24.4961 96.3906 24.4961C96.1759 24.4961 96.0033 24.5545 95.8726 24.6711C95.7466 24.7878 95.6556 24.9348 95.5996 25.1121C95.5436 25.2848 95.5156 25.4551 95.5156 25.6231V27.7021H94.8506ZM101.169 29.0741V23.9921H101.834V24.5801H101.876C101.932 24.4915 102.006 24.3958 102.1 24.2931C102.198 24.1905 102.326 24.1041 102.485 24.0341C102.643 23.9595 102.839 23.9221 103.073 23.9221C103.353 23.9221 103.598 23.9781 103.808 24.0901C104.018 24.1975 104.193 24.3445 104.333 24.5311C104.473 24.7131 104.578 24.9185 104.648 25.1471C104.718 25.3758 104.753 25.6091 104.753 25.8471C104.753 26.0851 104.718 26.3185 104.648 26.5471C104.578 26.7758 104.473 26.9835 104.333 27.1701C104.193 27.3521 104.018 27.4991 103.808 27.6111C103.598 27.7185 103.353 27.7721 103.073 27.7721C102.839 27.7721 102.643 27.7348 102.485 27.6601C102.326 27.5855 102.198 27.4968 102.1 27.3941C102.006 27.2915 101.932 27.1981 101.876 27.1141H101.834V29.0741H101.169ZM101.848 25.8471C101.848 26.0711 101.887 26.2881 101.967 26.4981C102.051 26.7035 102.174 26.8738 102.338 27.0091C102.506 27.1398 102.713 27.2051 102.961 27.2051C103.213 27.2051 103.42 27.1398 103.584 27.0091C103.752 26.8738 103.875 26.7035 103.955 26.4981C104.039 26.2881 104.081 26.0711 104.081 25.8471C104.081 25.6185 104.039 25.4015 103.955 25.1961C103.875 24.9908 103.752 24.8228 103.584 24.6921C103.42 24.5568 103.213 24.4891 102.961 24.4891C102.713 24.4891 102.506 24.5568 102.338 24.6921C102.174 24.8228 102.051 24.9908 101.967 25.1961C101.887 25.4015 101.848 25.6185 101.848 25.8471ZM107.241 23.9221C107.474 23.9221 107.67 23.9595 107.829 24.0341C107.988 24.1088 108.116 24.1975 108.214 24.3001C108.312 24.3981 108.387 24.4915 108.438 24.5801H108.48V23.9921H109.145V27.7021H108.48V27.1141H108.438C108.387 27.2028 108.312 27.2985 108.214 27.4011C108.116 27.5038 107.988 27.5925 107.829 27.6671C107.67 27.7371 107.474 27.7721 107.241 27.7721C106.961 27.7721 106.716 27.7185 106.506 27.6111C106.296 27.4991 106.121 27.3521 105.981 27.1701C105.841 26.9835 105.736 26.7758 105.666 26.5471C105.596 26.3185 105.561 26.0851 105.561 25.8471C105.561 25.6091 105.596 25.3758 105.666 25.1471C105.736 24.9185 105.841 24.7131 105.981 24.5311C106.121 24.3445 106.296 24.1975 106.506 24.0901C106.716 23.9781 106.961 23.9221 107.241 23.9221ZM107.353 24.4891C107.106 24.4891 106.898 24.5568 106.73 24.6921C106.562 24.8228 106.436 24.9908 106.352 25.1961C106.273 25.4015 106.233 25.6185 106.233 25.8471C106.233 26.0711 106.273 26.2881 106.352 26.4981C106.436 26.7035 106.562 26.8738 106.73 27.0091C106.898 27.1398 107.106 27.2051 107.353 27.2051C107.6 27.2051 107.806 27.1398 107.969 27.0091C108.137 26.8738 108.261 26.7035 108.34 26.4981C108.424 26.2881 108.466 26.0711 108.466 25.8471C108.466 25.6185 108.424 25.4015 108.34 25.1961C108.261 24.9908 108.137 24.8228 107.969 24.6921C107.806 24.5568 107.6 24.4891 107.353 24.4891ZM110.122 27.7021V23.9921H110.787V24.5311H110.829C110.862 24.4751 110.915 24.3981 110.99 24.3001C111.069 24.2021 111.181 24.1158 111.326 24.0411C111.471 23.9618 111.653 23.9221 111.872 23.9221C112.143 23.9221 112.374 23.9851 112.565 24.1111C112.756 24.2325 112.901 24.3981 112.999 24.6081C113.102 24.8181 113.153 25.0538 113.153 25.3151V27.7021H112.488V25.3571C112.488 25.1098 112.418 24.9045 112.278 24.7411C112.143 24.5778 111.944 24.4961 111.683 24.4961C111.473 24.4961 111.303 24.5498 111.172 24.6571C111.041 24.7598 110.943 24.8975 110.878 25.0701C110.817 25.2381 110.787 25.4178 110.787 25.6091V27.7021H110.122ZM114.063 29.0671C113.956 29.0671 113.865 29.0625 113.79 29.0531C113.715 29.0438 113.678 29.0391 113.678 29.0391V28.4721C113.678 28.4721 113.715 28.4745 113.79 28.4791C113.869 28.4885 113.953 28.4931 114.042 28.4931C114.317 28.4931 114.541 28.4348 114.714 28.3181C114.891 28.2061 115.041 28.0195 115.162 27.7581L113.727 23.9921H114.42L115.491 26.8901L116.569 23.9921H117.269L115.834 27.7091C115.652 28.1758 115.416 28.5188 115.127 28.7381C114.842 28.9575 114.488 29.0671 114.063 29.0671Z" fill="#4D4D4D"/>
</svg>
