<svg width="120" height="31" viewBox="0 0 120 31" fill="none" xmlns="http://www.w3.org/2000/svg">
<path d="M12.9705 19.1692C12.9639 18.3254 12.7524 17.4978 12.3565 16.7666C11.9607 16.0354 11.3939 15.4256 10.7112 14.9962L17.6667 2.16919L16.0408 1.16919L8.92 14.2952C8.04608 14.0875 7.13716 14.1162 6.27638 14.3787C5.41559 14.6413 4.63041 15.1293 3.99265 15.7982C0.474061 19.4092 0.746602 27.8512 0.759759 28.2092C0.769473 28.4674 0.87276 28.7116 1.04796 28.8906C1.22317 29.0695 1.45668 29.1694 1.69955 29.1692H15.788C15.9853 29.1692 16.1775 29.1032 16.3375 28.9804C16.4975 28.8577 16.6172 28.6845 16.6796 28.4854C16.742 28.2863 16.7439 28.0714 16.6851 27.871C16.6263 27.6707 16.5097 27.4951 16.3519 27.3692C13.025 24.7132 12.9705 19.2232 12.9705 19.1692ZM8.20293 16.1662C8.95512 16.175 9.67516 16.492 10.2132 17.0514C10.7513 17.6107 11.066 18.3692 11.0919 19.1692C11.0919 19.2072 11.0937 19.3772 11.1078 19.6382L5.56305 17.0142C5.92829 16.6937 6.34977 16.4537 6.80297 16.3081C7.25617 16.1625 7.73205 16.1143 8.20293 16.1662ZM11.511 27.1692C10.7598 26.3553 10.281 25.3012 10.1483 24.1692H8.26872C8.33603 25.2335 8.64846 26.2638 9.17844 27.1692H7.08928C6.70279 25.8714 6.46764 24.528 6.38913 23.1692H4.50954C4.57014 24.5239 4.7799 25.8664 5.1345 27.1692H2.62995C2.65908 25.3332 2.90249 21.2772 4.3244 18.6162L11.4039 21.9662C11.744 23.8455 12.4692 25.622 13.5278 27.1692H11.511Z" fill="#36B864"/>
<path d="M27.4179 6.79447C28.2346 6.79447 28.92 6.95975 29.4742 7.29031C30.0283 7.62086 30.4367 8.0535 30.6992 8.58822C30.9617 9.12295 31.0929 9.69656 31.0929 10.3091C31.0929 10.9216 30.9617 11.4903 30.6992 12.0153C30.4464 12.5306 30.0429 12.9486 29.4887 13.2695C28.9346 13.5903 28.2443 13.7507 27.4179 13.7507H25.6242V17.0028H23.6408V6.79447H27.4179ZM27.1117 12.0882C27.6853 12.0882 28.1665 11.9521 28.5554 11.6799C28.9443 11.4077 29.1387 10.9507 29.1387 10.3091C29.1387 9.66739 28.9443 9.22017 28.5554 8.96739C28.1762 8.70489 27.695 8.57364 27.1117 8.57364H25.6242V12.0882H27.1117ZM32.415 9.30281H34.4129V10.5278H34.515C34.6414 10.1875 34.8747 9.90072 35.215 9.66739C35.5553 9.42433 35.9928 9.30281 36.5275 9.30281C36.7316 9.30281 36.9066 9.32225 37.0525 9.36114L36.965 11.2132C36.7219 11.1452 36.4643 11.1111 36.1921 11.1111C35.5893 11.1111 35.1421 11.2716 34.8504 11.5924C34.5587 11.9035 34.4129 12.4236 34.4129 13.1528V17.0028H32.415V9.30281ZM41.3952 17.1195C40.5883 17.1195 39.9077 16.9396 39.3536 16.5799C38.8091 16.2104 38.4008 15.7243 38.1286 15.1216C37.8563 14.5188 37.7202 13.8577 37.7202 13.1382C37.7202 12.4188 37.8515 11.7577 38.114 11.1549C38.3862 10.5424 38.7994 10.0514 39.3536 9.68197C39.9077 9.31253 40.5883 9.12781 41.3952 9.12781C42.2022 9.12781 42.8827 9.31253 43.4369 9.68197C43.9911 10.0417 44.4043 10.5229 44.6765 11.1257C44.9487 11.7285 45.0848 12.3896 45.0848 13.1091C45.0848 13.8285 44.9487 14.4945 44.6765 15.107C44.4043 15.7098 43.9911 16.1959 43.4369 16.5653C42.8827 16.9348 42.2022 17.1195 41.3952 17.1195ZM41.3952 15.4861C41.9591 15.4861 42.382 15.2625 42.664 14.8153C42.9556 14.3584 43.1015 13.7896 43.1015 13.1091C43.1015 12.4285 42.9556 11.8695 42.664 11.432C42.382 10.9848 41.9591 10.7611 41.3952 10.7611C40.8313 10.7611 40.4084 10.9848 40.1265 11.432C39.8445 11.8695 39.7036 12.4285 39.7036 13.1091C39.7036 13.7896 39.8445 14.3584 40.1265 14.8153C40.4181 15.2625 40.8411 15.4861 41.3952 15.4861Z" fill="#36B864"/>
<path d="M50.9033 17.1195C49.9311 17.1195 49.095 16.8813 48.395 16.4049C47.695 15.9285 47.1603 15.2917 46.7908 14.4945C46.4311 13.6875 46.2513 12.8077 46.2513 11.8549C46.2513 10.8924 46.4311 10.0125 46.7908 9.21531C47.1603 8.41808 47.695 7.78128 48.395 7.30489C49.095 6.8285 49.9311 6.59031 50.9033 6.59031C52.0894 6.59031 53.0617 6.93058 53.82 7.61114C54.5783 8.2917 55.0742 9.18614 55.3075 10.2945H53.3533C53.2172 9.73058 52.9304 9.26878 52.4929 8.90906C52.0651 8.53961 51.545 8.35489 50.9325 8.35489C50.0867 8.35489 49.445 8.67572 49.0075 9.31739C48.57 9.95906 48.3513 10.8049 48.3513 11.8549C48.3513 12.9049 48.57 13.7507 49.0075 14.3924C49.445 15.0341 50.0867 15.3549 50.9325 15.3549C51.5353 15.3549 52.0408 15.1848 52.4492 14.8445C52.8575 14.4945 53.1394 14.0618 53.295 13.5466H55.2492C55.0158 14.5966 54.5249 15.457 53.7763 16.1278C53.0276 16.7889 52.07 17.1195 50.9033 17.1195ZM59.1315 17.0611C58.4121 17.0611 57.8774 16.9542 57.5274 16.7403C57.1871 16.5167 56.9732 16.2445 56.8857 15.9236C56.8079 15.5931 56.769 15.175 56.769 14.6695V6.06531H58.7815V14.2611C58.7815 14.6111 58.7961 14.8736 58.8253 15.0486C58.8642 15.2139 58.9614 15.35 59.1169 15.457C59.2822 15.5542 59.5399 15.6028 59.8899 15.6028C60.0065 15.6028 60.1426 15.5931 60.2982 15.5736V16.9736C59.8024 17.032 59.4135 17.0611 59.1315 17.0611ZM65.0789 17.1195C64.272 17.1195 63.5914 16.9348 63.0372 16.5653C62.4831 16.1861 62.0699 15.6952 61.7977 15.0924C61.5352 14.4799 61.4039 13.8236 61.4039 13.1236C61.4039 12.4236 61.5352 11.7723 61.7977 11.1695C62.0699 10.557 62.4831 10.0611 63.0372 9.68197C63.5914 9.30281 64.2768 9.11322 65.0935 9.11322C66.1727 9.11322 67.0282 9.45836 67.6602 10.1486C68.3018 10.8389 68.6227 11.8354 68.6227 13.1382V13.6924H63.3435V13.8091C63.3435 14.2757 63.5039 14.6792 63.8247 15.0195C64.1456 15.35 64.549 15.5153 65.0352 15.5153C65.4143 15.5153 65.7352 15.4278 65.9977 15.2528C66.2602 15.0778 66.4497 14.8396 66.5664 14.5382H68.5497C68.3456 15.2966 67.947 15.9188 67.3539 16.4049C66.7609 16.8813 66.0025 17.1195 65.0789 17.1195ZM66.6831 12.3799C66.6636 11.7674 66.5081 11.3153 66.2164 11.0236C65.9247 10.732 65.5407 10.5861 65.0643 10.5861C64.5588 10.5861 64.1602 10.7466 63.8685 11.0674C63.5768 11.3882 63.4213 11.8257 63.4018 12.3799H66.6831ZM72.7668 17.1195C71.8141 17.1195 71.0703 16.7549 70.5356 16.0257C70.0009 15.2966 69.7335 14.3341 69.7335 13.1382C69.7335 11.9229 70.0009 10.9507 70.5356 10.2216C71.08 9.48267 71.8384 9.11322 72.8106 9.11322C73.462 9.11322 73.9724 9.26392 74.3418 9.56531C74.7113 9.85697 74.9738 10.1681 75.1293 10.4986H75.246V9.30281H77.2731V17.0028H75.246V15.6757H75.1293C74.9543 16.0354 74.6821 16.366 74.3127 16.6674C73.9432 16.9688 73.4279 17.1195 72.7668 17.1195ZM73.5106 15.4861C74.0842 15.4861 74.5168 15.2528 74.8085 14.7861C75.1002 14.3195 75.246 13.7604 75.246 13.1091C75.246 12.4577 75.1002 11.9035 74.8085 11.4466C74.5266 10.9896 74.0939 10.7611 73.5106 10.7611C72.9272 10.7611 72.4946 10.9896 72.2127 11.4466C71.9307 11.9035 71.7897 12.4577 71.7897 13.1091C71.7897 13.7702 71.9307 14.3341 72.2127 14.8007C72.4946 15.2577 72.9272 15.4861 73.5106 15.4861ZM79.0404 9.30281H81.0821V10.4841H81.1841C81.3591 10.1049 81.6411 9.78406 82.03 9.52156C82.4189 9.24933 82.8904 9.11322 83.4446 9.11322C84.446 9.11322 85.1508 9.43406 85.5591 10.0757C85.9772 10.7174 86.1862 11.4466 86.1862 12.2632V17.0028H84.1737V12.5986C84.1737 12.0348 84.0376 11.5924 83.7654 11.2716C83.5029 10.9507 83.1286 10.7903 82.6425 10.7903C82.1272 10.7903 81.7383 10.9604 81.4758 11.3007C81.2133 11.6313 81.0821 12.0639 81.0821 12.5986V17.0028H79.0404V9.30281ZM88.0323 9.30281H90.0448V17.0028H88.0323V9.30281ZM89.0239 7.97572C88.7031 7.97572 88.4358 7.86878 88.2219 7.65489C88.008 7.43128 87.901 7.16392 87.901 6.85281C87.901 6.53197 88.008 6.26461 88.2219 6.05072C88.4358 5.83683 88.7031 5.72989 89.0239 5.72989C89.3448 5.72989 89.6121 5.8417 89.826 6.06531C90.0399 6.2792 90.1469 6.5417 90.1469 6.85281C90.1469 7.16392 90.0399 7.43128 89.826 7.65489C89.6121 7.86878 89.3448 7.97572 89.0239 7.97572ZM92.0429 9.30281H94.0846V10.4841H94.1867C94.3617 10.1049 94.6436 9.78406 95.0325 9.52156C95.4214 9.24933 95.8929 9.11322 96.4471 9.11322C97.4485 9.11322 98.1533 9.43406 98.5617 10.0757C98.9797 10.7174 99.1888 11.4466 99.1888 12.2632V17.0028H97.1763V12.5986C97.1763 12.0348 97.0401 11.5924 96.7679 11.2716C96.5054 10.9507 96.1311 10.7903 95.645 10.7903C95.1297 10.7903 94.7408 10.9604 94.4783 11.3007C94.2158 11.6313 94.0846 12.0639 94.0846 12.5986V17.0028H92.0429V9.30281ZM104.52 20.2403C104.16 20.2403 103.888 20.216 103.703 20.1674C103.518 20.1285 103.333 20.075 103.149 20.007V18.3882C103.246 18.4174 103.401 18.4466 103.615 18.4757C103.839 18.5146 104.053 18.5341 104.257 18.5341C104.938 18.5341 105.414 18.3396 105.686 17.9507C105.968 17.5716 106.109 17.0952 106.109 16.5216V15.5007H105.992C105.837 15.8507 105.565 16.1764 105.176 16.4778C104.787 16.7792 104.272 16.9299 103.63 16.9299C103.008 16.9299 102.468 16.7695 102.011 16.4486C101.554 16.1181 101.204 15.6611 100.961 15.0778C100.718 14.4848 100.597 13.8042 100.597 13.0361C100.597 12.2486 100.718 11.5632 100.961 10.9799C101.204 10.3868 101.554 9.92989 102.011 9.60906C102.478 9.2785 103.022 9.11322 103.645 9.11322C104.296 9.11322 104.816 9.27364 105.205 9.59447C105.594 9.90558 105.856 10.2361 105.992 10.5861H106.109V9.30281H108.136V16.5216C108.136 17.0174 108.044 17.5424 107.859 18.0966C107.684 18.6604 107.329 19.1563 106.795 19.5841C106.26 20.0216 105.501 20.2403 104.52 20.2403ZM104.388 15.2966C104.952 15.2966 105.38 15.0681 105.672 14.6111C105.963 14.1542 106.109 13.6195 106.109 13.007C106.109 12.4042 105.963 11.8792 105.672 11.432C105.39 10.975 104.962 10.7466 104.388 10.7466C103.815 10.7466 103.382 10.975 103.09 11.432C102.799 11.8792 102.653 12.4042 102.653 13.007C102.653 13.6195 102.794 14.1542 103.076 14.6111C103.367 15.0681 103.805 15.2966 104.388 15.2966Z" fill="white"/>
<path d="M25.3366 28.7612C24.8699 28.7612 24.4686 28.6469 24.1326 28.4182C23.7966 28.1895 23.5399 27.8839 23.3626 27.5012C23.1899 27.1139 23.1036 26.6915 23.1036 26.2342C23.1036 25.7722 23.1899 25.3499 23.3626 24.9672C23.5399 24.5845 23.7966 24.2789 24.1326 24.0502C24.4686 23.8215 24.8699 23.7072 25.3366 23.7072C25.9059 23.7072 26.3726 23.8705 26.7366 24.1972C27.1006 24.5239 27.3386 24.9532 27.4506 25.4852H26.5126C26.4472 25.2145 26.3096 24.9929 26.0996 24.8202C25.8942 24.6429 25.6446 24.5542 25.3506 24.5542C24.9446 24.5542 24.6366 24.7082 24.4266 25.0162C24.2166 25.3242 24.1116 25.7302 24.1116 26.2342C24.1116 26.7382 24.2166 27.1442 24.4266 27.4522C24.6366 27.7602 24.9446 27.9142 25.3506 27.9142C25.6399 27.9142 25.8826 27.8325 26.0786 27.6692C26.2746 27.5012 26.4099 27.2935 26.4846 27.0462H27.4226C27.3106 27.5502 27.0749 27.9632 26.7156 28.2852C26.3562 28.6025 25.8966 28.7612 25.3366 28.7612ZM29.2861 28.7332C28.9408 28.7332 28.6841 28.6819 28.5161 28.5792C28.3528 28.4719 28.2501 28.3412 28.2081 28.1872C28.1708 28.0285 28.1521 27.8279 28.1521 27.5852V23.4552H29.1181V27.3892C29.1181 27.5572 29.1251 27.6832 29.1391 27.7672C29.1578 27.8465 29.2044 27.9119 29.2791 27.9632C29.3584 28.0099 29.4821 28.0332 29.6501 28.0332C29.7061 28.0332 29.7714 28.0285 29.8461 28.0192V28.6912C29.6081 28.7192 29.4214 28.7332 29.2861 28.7332ZM32.1408 28.7612C31.7535 28.7612 31.4268 28.6725 31.1608 28.4952C30.8948 28.3132 30.6965 28.0775 30.5658 27.7882C30.4398 27.4942 30.3768 27.1792 30.3768 26.8432C30.3768 26.5072 30.4398 26.1945 30.5658 25.9052C30.6965 25.6112 30.8948 25.3732 31.1608 25.1912C31.4268 25.0092 31.7558 24.9182 32.1478 24.9182C32.6658 24.9182 33.0765 25.0839 33.3798 25.4152C33.6878 25.7465 33.8418 26.2249 33.8418 26.8502V27.1162H31.3078V27.1722C31.3078 27.3962 31.3848 27.5899 31.5388 27.7532C31.6928 27.9119 31.8865 27.9912 32.1198 27.9912C32.3018 27.9912 32.4558 27.9492 32.5818 27.8652C32.7078 27.7812 32.7988 27.6669 32.8548 27.5222H33.8068C33.7088 27.8862 33.5175 28.1849 33.2328 28.4182C32.9482 28.6469 32.5842 28.7612 32.1408 28.7612ZM32.9108 26.4862C32.9015 26.1922 32.8268 25.9752 32.6868 25.8352C32.5468 25.6952 32.3625 25.6252 32.1338 25.6252C31.8912 25.6252 31.6998 25.7022 31.5598 25.8562C31.4198 26.0102 31.3452 26.2202 31.3358 26.4862H32.9108ZM35.831 28.7612C35.3737 28.7612 35.0167 28.5862 34.76 28.2362C34.5034 27.8862 34.375 27.4242 34.375 26.8502C34.375 26.2669 34.5034 25.8002 34.76 25.4502C35.0214 25.0955 35.3854 24.9182 35.852 24.9182C36.1647 24.9182 36.4097 24.9905 36.587 25.1352C36.7644 25.2752 36.8904 25.4245 36.965 25.5832H37.021V25.0092H37.994V28.7052H37.021V28.0682H36.965C36.881 28.2409 36.7504 28.3995 36.573 28.5442C36.3957 28.6889 36.1484 28.7612 35.831 28.7612ZM36.188 27.9772C36.4634 27.9772 36.671 27.8652 36.811 27.6412C36.951 27.4172 37.021 27.1489 37.021 26.8362C37.021 26.5235 36.951 26.2575 36.811 26.0382C36.6757 25.8189 36.468 25.7092 36.188 25.7092C35.908 25.7092 35.7004 25.8189 35.565 26.0382C35.4297 26.2575 35.362 26.5235 35.362 26.8362C35.362 27.1535 35.4297 27.4242 35.565 27.6482C35.7004 27.8675 35.908 27.9772 36.188 27.9772ZM38.8424 25.0092H39.8224V25.5762H39.8714C39.9554 25.3942 40.0907 25.2402 40.2774 25.1142C40.464 24.9835 40.6904 24.9182 40.9564 24.9182C41.437 24.9182 41.7754 25.0722 41.9714 25.3802C42.172 25.6882 42.2724 26.0382 42.2724 26.4302V28.7052H41.3064V26.5912C41.3064 26.3205 41.241 26.1082 41.1104 25.9542C40.9844 25.8002 40.8047 25.7232 40.5714 25.7232C40.324 25.7232 40.1374 25.8049 40.0114 25.9682C39.8854 26.1269 39.8224 26.3345 39.8224 26.5912V28.7052H38.8424V25.0092ZM43.1585 25.0092H44.1245V28.7052H43.1585V25.0092ZM43.6345 24.3722C43.4805 24.3722 43.3521 24.3209 43.2495 24.2182C43.1468 24.1109 43.0955 23.9825 43.0955 23.8332C43.0955 23.6792 43.1468 23.5509 43.2495 23.4482C43.3521 23.3455 43.4805 23.2942 43.6345 23.2942C43.7885 23.2942 43.9168 23.3479 44.0195 23.4552C44.1221 23.5579 44.1735 23.6839 44.1735 23.8332C44.1735 23.9825 44.1221 24.1109 44.0195 24.2182C43.9168 24.3209 43.7885 24.3722 43.6345 24.3722ZM45.0836 25.0092H46.0636V25.5762H46.1126C46.1966 25.3942 46.3319 25.2402 46.5186 25.1142C46.7052 24.9835 46.9316 24.9182 47.1976 24.9182C47.6782 24.9182 48.0166 25.0722 48.2126 25.3802C48.4132 25.6882 48.5136 26.0382 48.5136 26.4302V28.7052H47.5476V26.5912C47.5476 26.3205 47.4822 26.1082 47.3516 25.9542C47.2256 25.8002 47.0459 25.7232 46.8126 25.7232C46.5652 25.7232 46.3786 25.8049 46.2526 25.9682C46.1266 26.1269 46.0636 26.3345 46.0636 26.5912V28.7052H45.0836V25.0092ZM51.0723 30.2592C50.8997 30.2592 50.769 30.2475 50.6803 30.2242C50.5917 30.2055 50.503 30.1799 50.4143 30.1472V29.3702C50.461 29.3842 50.5357 29.3982 50.6383 29.4122C50.7457 29.4309 50.8483 29.4402 50.9463 29.4402C51.273 29.4402 51.5017 29.3469 51.6323 29.1602C51.7677 28.9782 51.8353 28.7495 51.8353 28.4742V27.9842H51.7793C51.7047 28.1522 51.574 28.3085 51.3873 28.4532C51.2007 28.5979 50.9533 28.6702 50.6453 28.6702C50.3467 28.6702 50.0877 28.5932 49.8683 28.4392C49.649 28.2805 49.481 28.0612 49.3643 27.7812C49.2477 27.4965 49.1893 27.1699 49.1893 26.8012C49.1893 26.4232 49.2477 26.0942 49.3643 25.8142C49.481 25.5295 49.649 25.3102 49.8683 25.1562C50.0923 24.9975 50.3537 24.9182 50.6523 24.9182C50.965 24.9182 51.2147 24.9952 51.4013 25.1492C51.588 25.2985 51.714 25.4572 51.7793 25.6252H51.8353V25.0092H52.8083V28.4742C52.8083 28.7122 52.764 28.9642 52.6753 29.2302C52.5913 29.5009 52.421 29.7389 52.1643 29.9442C51.9077 30.1542 51.5437 30.2592 51.0723 30.2592ZM51.0093 27.8862C51.28 27.8862 51.4853 27.7765 51.6253 27.5572C51.7653 27.3379 51.8353 27.0812 51.8353 26.7872C51.8353 26.4979 51.7653 26.2459 51.6253 26.0312C51.49 25.8119 51.2847 25.7022 51.0093 25.7022C50.734 25.7022 50.5263 25.8119 50.3863 26.0312C50.2463 26.2459 50.1763 26.4979 50.1763 26.7872C50.1763 27.0812 50.244 27.3379 50.3793 27.5572C50.5193 27.7765 50.7293 27.8862 51.0093 27.8862ZM56.9923 28.7682C56.6003 28.7682 56.2619 28.6912 55.9773 28.5372C55.6973 28.3785 55.4849 28.1755 55.3403 27.9282C55.1956 27.6809 55.1233 27.4195 55.1233 27.1442V27.1022H56.1873V27.1442C56.1873 27.2609 56.2153 27.3799 56.2713 27.5012C56.3319 27.6179 56.4229 27.7159 56.5443 27.7952C56.6703 27.8745 56.8243 27.9142 57.0063 27.9142C57.2349 27.9142 57.4193 27.8559 57.5593 27.7392C57.7039 27.6225 57.7763 27.4662 57.7763 27.2702C57.7763 27.1022 57.7156 26.9692 57.5943 26.8712C57.4776 26.7685 57.3329 26.7009 57.1603 26.6682L56.5653 26.5422C56.2573 26.4815 55.9609 26.3509 55.6763 26.1502C55.3916 25.9449 55.2493 25.6112 55.2493 25.1492C55.2493 24.8505 55.3216 24.5939 55.4663 24.3792C55.6109 24.1599 55.8116 23.9942 56.0683 23.8822C56.3249 23.7655 56.6166 23.7072 56.9433 23.7072C57.3166 23.7072 57.6363 23.7795 57.9023 23.9242C58.1729 24.0689 58.3759 24.2555 58.5113 24.4842C58.6513 24.7129 58.7213 24.9555 58.7213 25.2122V25.2402H57.6573V25.2192C57.6573 25.0512 57.5966 24.8949 57.4753 24.7502C57.3586 24.6009 57.1696 24.5262 56.9083 24.5262C56.6936 24.5262 56.5256 24.5845 56.4043 24.7012C56.2829 24.8132 56.2223 24.9579 56.2223 25.1352C56.2223 25.3032 56.2829 25.4362 56.4043 25.5342C56.5303 25.6322 56.6843 25.6999 56.8663 25.7372L57.4543 25.8632C57.8136 25.9425 58.1263 26.0895 58.3923 26.3042C58.6583 26.5189 58.7913 26.8339 58.7913 27.2492C58.7913 27.5479 58.7143 27.8139 58.5603 28.0472C58.4063 28.2759 58.1916 28.4532 57.9163 28.5792C57.6456 28.7052 57.3376 28.7682 56.9923 28.7682ZM61.0979 28.7612C60.7105 28.7612 60.3839 28.6725 60.1179 28.4952C59.8519 28.3132 59.6535 28.0775 59.5229 27.7882C59.3969 27.4942 59.3339 27.1792 59.3339 26.8432C59.3339 26.5072 59.3969 26.1945 59.5229 25.9052C59.6535 25.6112 59.8519 25.3732 60.1179 25.1912C60.3839 25.0092 60.7129 24.9182 61.1049 24.9182C61.6229 24.9182 62.0335 25.0839 62.3369 25.4152C62.6449 25.7465 62.7989 26.2249 62.7989 26.8502V27.1162H60.2649V27.1722C60.2649 27.3962 60.3419 27.5899 60.4959 27.7532C60.6499 27.9119 60.8435 27.9912 61.0769 27.9912C61.2589 27.9912 61.4129 27.9492 61.5389 27.8652C61.6649 27.7812 61.7559 27.6669 61.8119 27.5222H62.7639C62.6659 27.8862 62.4745 28.1849 62.1899 28.4182C61.9052 28.6469 61.5412 28.7612 61.0979 28.7612ZM61.8679 26.4862C61.8585 26.1922 61.7839 25.9752 61.6439 25.8352C61.5039 25.6952 61.3195 25.6252 61.0909 25.6252C60.8482 25.6252 60.6569 25.7022 60.5169 25.8562C60.3769 26.0102 60.3022 26.2202 60.2929 26.4862H61.8679ZM63.5071 25.0092H64.4661V25.5972H64.5151C64.5757 25.4339 64.6877 25.2962 64.8511 25.1842C65.0144 25.0675 65.2244 25.0092 65.4811 25.0092C65.5791 25.0092 65.6631 25.0185 65.7331 25.0372L65.6911 25.9262C65.5744 25.8935 65.4507 25.8772 65.3201 25.8772C65.0307 25.8772 64.8161 25.9542 64.6761 26.1082C64.5361 26.2575 64.4661 26.5072 64.4661 26.8572V28.7052H63.5071V25.0092ZM66.2482 25.0092H67.1652L68.0472 27.7252H68.0892L68.9572 25.0092H69.8742L68.6422 28.7052H67.4732L66.2482 25.0092ZM70.5159 25.0092H71.4819V28.7052H70.5159V25.0092ZM70.9919 24.3722C70.8379 24.3722 70.7096 24.3209 70.6069 24.2182C70.5042 24.1109 70.4529 23.9825 70.4529 23.8332C70.4529 23.6792 70.5042 23.5509 70.6069 23.4482C70.7096 23.3455 70.8379 23.2942 70.9919 23.2942C71.1459 23.2942 71.2742 23.3479 71.3769 23.4552C71.4796 23.5579 71.5309 23.6839 71.5309 23.8332C71.5309 23.9825 71.4796 24.1109 71.3769 24.2182C71.2742 24.3209 71.1459 24.3722 70.9919 24.3722ZM74.0521 28.7682C73.6601 28.7682 73.3311 28.6772 73.0651 28.4952C72.7991 28.3132 72.6008 28.0752 72.4701 27.7812C72.3441 27.4872 72.2811 27.1722 72.2811 26.8362C72.2811 26.5049 72.3441 26.1945 72.4701 25.9052C72.6008 25.6112 72.7991 25.3732 73.0651 25.1912C73.3311 25.0092 73.6601 24.9182 74.0521 24.9182C74.5468 24.9182 74.9365 25.0605 75.2211 25.3452C75.5105 25.6252 75.6855 25.9799 75.7461 26.4092H74.8011C74.7685 26.1992 74.6891 26.0312 74.5631 25.9052C74.4418 25.7745 74.2738 25.7092 74.0591 25.7092C73.7745 25.7092 73.5645 25.8189 73.4291 26.0382C73.2985 26.2575 73.2331 26.5235 73.2331 26.8362C73.2331 27.1582 73.2985 27.4289 73.4291 27.6482C73.5645 27.8675 73.7745 27.9772 74.0591 27.9772C74.2691 27.9772 74.4371 27.9142 74.5631 27.7882C74.6891 27.6575 74.7685 27.4872 74.8011 27.2772H75.7461C75.6855 27.7065 75.5105 28.0635 75.2211 28.3482C74.9365 28.6282 74.5468 28.7682 74.0521 28.7682ZM78.0578 28.7612C77.6705 28.7612 77.3438 28.6725 77.0778 28.4952C76.8118 28.3132 76.6135 28.0775 76.4828 27.7882C76.3568 27.4942 76.2938 27.1792 76.2938 26.8432C76.2938 26.5072 76.3568 26.1945 76.4828 25.9052C76.6135 25.6112 76.8118 25.3732 77.0778 25.1912C77.3438 25.0092 77.6728 24.9182 78.0648 24.9182C78.5828 24.9182 78.9935 25.0839 79.2968 25.4152C79.6048 25.7465 79.7588 26.2249 79.7588 26.8502V27.1162H77.2248V27.1722C77.2248 27.3962 77.3018 27.5899 77.4558 27.7532C77.6098 27.9119 77.8035 27.9912 78.0368 27.9912C78.2188 27.9912 78.3728 27.9492 78.4988 27.8652C78.6248 27.7812 78.7158 27.6669 78.7718 27.5222H79.7238C79.6258 27.8862 79.4345 28.1849 79.1498 28.4182C78.8652 28.6469 78.5012 28.7612 78.0578 28.7612ZM78.8278 26.4862C78.8185 26.1922 78.7438 25.9752 78.6038 25.8352C78.4638 25.6952 78.2795 25.6252 78.0508 25.6252C77.8082 25.6252 77.6168 25.7022 77.4768 25.8562C77.3368 26.0102 77.2622 26.2202 77.2528 26.4862H78.8278ZM81.811 28.7612C81.4984 28.7612 81.2277 28.7029 80.999 28.5862C80.775 28.4695 80.6047 28.3179 80.488 28.1312C80.3714 27.9399 80.313 27.7392 80.313 27.5292V27.4872H81.258V27.5292C81.258 27.6552 81.307 27.7672 81.405 27.8652C81.503 27.9632 81.6454 28.0122 81.832 28.0122C81.986 28.0122 82.1097 27.9772 82.203 27.9072C82.301 27.8325 82.35 27.7322 82.35 27.6062C82.35 27.4942 82.308 27.4055 82.224 27.3402C82.14 27.2749 82.035 27.2329 81.909 27.2142L81.489 27.1302C81.2137 27.0789 80.964 26.9692 80.74 26.8012C80.516 26.6332 80.404 26.3789 80.404 26.0382C80.404 25.6882 80.5324 25.4152 80.789 25.2192C81.0457 25.0185 81.3747 24.9182 81.776 24.9182C82.07 24.9182 82.3244 24.9719 82.539 25.0792C82.7537 25.1865 82.917 25.3289 83.029 25.5062C83.141 25.6789 83.197 25.8655 83.197 26.0662V26.0942H82.252V26.0732C82.252 25.9612 82.21 25.8585 82.126 25.7652C82.042 25.6672 81.9137 25.6182 81.741 25.6182C81.5964 25.6182 81.4797 25.6555 81.391 25.7302C81.3024 25.8049 81.258 25.9029 81.258 26.0242C81.258 26.1362 81.3024 26.2249 81.391 26.2902C81.4844 26.3555 81.5987 26.3999 81.734 26.4232L82.196 26.5142C82.4947 26.5795 82.7467 26.6985 82.952 26.8712C83.1574 27.0392 83.26 27.2795 83.26 27.5922C83.26 27.8255 83.197 28.0309 83.071 28.2082C82.945 28.3855 82.77 28.5232 82.546 28.6212C82.3267 28.7145 82.0817 28.7612 81.811 28.7612ZM87.1703 28.7682C86.7783 28.7682 86.4493 28.6772 86.1833 28.4952C85.9173 28.3132 85.719 28.0752 85.5883 27.7812C85.4623 27.4872 85.3993 27.1722 85.3993 26.8362C85.3993 26.5049 85.4623 26.1945 85.5883 25.9052C85.719 25.6112 85.9173 25.3732 86.1833 25.1912C86.4493 25.0092 86.7783 24.9182 87.1703 24.9182C87.665 24.9182 88.0546 25.0605 88.3393 25.3452C88.6286 25.6252 88.8036 25.9799 88.8643 26.4092H87.9193C87.8866 26.1992 87.8073 26.0312 87.6813 25.9052C87.56 25.7745 87.392 25.7092 87.1773 25.7092C86.8926 25.7092 86.6826 25.8189 86.5473 26.0382C86.4166 26.2575 86.3513 26.5235 86.3513 26.8362C86.3513 27.1582 86.4166 27.4289 86.5473 27.6482C86.6826 27.8675 86.8926 27.9772 87.1773 27.9772C87.3873 27.9772 87.5553 27.9142 87.6813 27.7882C87.8073 27.6575 87.8866 27.4872 87.9193 27.2772H88.8643C88.8036 27.7065 88.6286 28.0635 88.3393 28.3482C88.0546 28.6282 87.665 28.7682 87.1703 28.7682ZM91.176 28.7612C90.7887 28.7612 90.462 28.6749 90.196 28.5022C89.9347 28.3249 89.7387 28.0915 89.608 27.8022C89.4773 27.5129 89.412 27.1955 89.412 26.8502C89.412 26.5049 89.475 26.1875 89.601 25.8982C89.7317 25.6042 89.93 25.3685 90.196 25.1912C90.462 25.0139 90.7887 24.9252 91.176 24.9252C91.5633 24.9252 91.89 25.0139 92.156 25.1912C92.422 25.3639 92.6203 25.5949 92.751 25.8842C92.8817 26.1735 92.947 26.4909 92.947 26.8362C92.947 27.1815 92.8817 27.5012 92.751 27.7952C92.6203 28.0845 92.422 28.3179 92.156 28.4952C91.89 28.6725 91.5633 28.7612 91.176 28.7612ZM91.176 27.9772C91.4467 27.9772 91.6497 27.8699 91.785 27.6552C91.925 27.4359 91.995 27.1629 91.995 26.8362C91.995 26.5095 91.925 26.2412 91.785 26.0312C91.6497 25.8165 91.4467 25.7092 91.176 25.7092C90.9053 25.7092 90.7023 25.8165 90.567 26.0312C90.4317 26.2412 90.364 26.5095 90.364 26.8362C90.364 27.1629 90.4317 27.4359 90.567 27.6552C90.707 27.8699 90.91 27.9772 91.176 27.9772ZM93.6324 25.0092H94.6054V25.6042H94.6544C94.7057 25.4735 94.8131 25.3265 94.9764 25.1632C95.1397 24.9999 95.3777 24.9182 95.6904 24.9182C95.9331 24.9182 96.1361 24.9742 96.2994 25.0862C96.4627 25.1982 96.5817 25.3172 96.6564 25.4432C96.7357 25.5645 96.7824 25.6532 96.7964 25.7092H96.8454C96.9014 25.5599 97.0181 25.3919 97.1954 25.2052C97.3727 25.0139 97.6457 24.9182 98.0144 24.9182C98.3364 24.9182 98.5907 25.0022 98.7774 25.1702C98.9687 25.3335 99.1017 25.5319 99.1764 25.7652C99.2557 25.9939 99.2954 26.2155 99.2954 26.4302V28.7052H98.3224V26.5282C98.3224 26.2762 98.2571 26.0849 98.1264 25.9542C97.9957 25.8235 97.8371 25.7582 97.6504 25.7582C97.4591 25.7582 97.2934 25.8259 97.1534 25.9612C97.0181 26.0965 96.9504 26.2855 96.9504 26.5282V28.7052H95.9774V26.5282C95.9774 26.2762 95.9121 26.0849 95.7814 25.9542C95.6507 25.8235 95.4921 25.7582 95.3054 25.7582C95.1141 25.7582 94.9484 25.8259 94.8084 25.9612C94.6731 26.0965 94.6054 26.2855 94.6054 26.5282V28.7052H93.6324V25.0092ZM102.276 28.7612C101.963 28.7612 101.718 28.6889 101.541 28.5442C101.363 28.3995 101.233 28.2409 101.149 28.0682H101.093V30.1612H100.12V25.0092H101.093V25.5832H101.149C101.223 25.4245 101.349 25.2752 101.527 25.1352C101.704 24.9905 101.951 24.9182 102.269 24.9182C102.74 24.9182 103.102 25.0932 103.354 25.4432C103.61 25.7932 103.739 26.2622 103.739 26.8502C103.739 27.4242 103.61 27.8862 103.354 28.2362C103.102 28.5862 102.742 28.7612 102.276 28.7612ZM101.926 27.9912C102.206 27.9912 102.413 27.8792 102.549 27.6552C102.689 27.4312 102.759 27.1605 102.759 26.8432C102.759 26.5352 102.689 26.2715 102.549 26.0522C102.413 25.8282 102.206 25.7162 101.926 25.7162C101.65 25.7162 101.443 25.8282 101.303 26.0522C101.163 26.2762 101.093 26.5422 101.093 26.8502C101.093 27.1629 101.163 27.4312 101.303 27.6552C101.443 27.8792 101.65 27.9912 101.926 27.9912ZM105.77 28.7612C105.312 28.7612 104.955 28.5862 104.699 28.2362C104.442 27.8862 104.314 27.4242 104.314 26.8502C104.314 26.2669 104.442 25.8002 104.699 25.4502C104.96 25.0955 105.324 24.9182 105.791 24.9182C106.103 24.9182 106.348 24.9905 106.526 25.1352C106.703 25.2752 106.829 25.4245 106.904 25.5832H106.96V25.0092H107.933V28.7052H106.96V28.0682H106.904C106.82 28.2409 106.689 28.3995 106.512 28.5442C106.334 28.6889 106.087 28.7612 105.77 28.7612ZM106.127 27.9772C106.402 27.9772 106.61 27.8652 106.75 27.6412C106.89 27.4172 106.96 27.1489 106.96 26.8362C106.96 26.5235 106.89 26.2575 106.75 26.0382C106.614 25.8189 106.407 25.7092 106.127 25.7092C105.847 25.7092 105.639 25.8189 105.504 26.0382C105.368 26.2575 105.301 26.5235 105.301 26.8362C105.301 27.1535 105.368 27.4242 105.504 27.6482C105.639 27.8675 105.847 27.9772 106.127 27.9772ZM108.781 25.0092H109.761V25.5762H109.81C109.894 25.3942 110.029 25.2402 110.216 25.1142C110.403 24.9835 110.629 24.9182 110.895 24.9182C111.376 24.9182 111.714 25.0722 111.91 25.3802C112.111 25.6882 112.211 26.0382 112.211 26.4302V28.7052H111.245V26.5912C111.245 26.3205 111.18 26.1082 111.049 25.9542C110.923 25.8002 110.743 25.7232 110.51 25.7232C110.263 25.7232 110.076 25.8049 109.95 25.9682C109.824 26.1269 109.761 26.3345 109.761 26.5912V28.7052H108.781V25.0092ZM114.674 29.2302C114.608 29.4029 114.538 29.5545 114.464 29.6852C114.389 29.8205 114.256 29.9512 114.065 30.0772C113.878 30.2032 113.631 30.2662 113.323 30.2662C113.192 30.2662 113.08 30.2545 112.987 30.2312C112.893 30.2125 112.835 30.2009 112.812 30.1962V29.5172C112.886 29.5359 112.987 29.5452 113.113 29.5452C113.267 29.5452 113.39 29.5195 113.484 29.4682C113.577 29.4169 113.652 29.3492 113.708 29.2652C113.764 29.1812 113.82 29.0645 113.876 28.9152L113.995 28.6212L112.665 25.0092H113.645L114.443 27.5502H114.485L115.325 25.0092H116.305L114.674 29.2302Z" fill="white"/>
</svg>
